<svg width="32" height="32" viewBox="0 0 32 32" fill="none" xmlns="http://www.w3.org/2000/svg">
<g clip-path="url(#clip0_1030_105)">
<rect width="32" height="32" rx="16" fill="white"/>
<path d="M12.1788 15.3752C12.1489 15.1039 12.3736 14.882 12.6479 14.882C13.4525 14.882 15.1516 14.882 17.1173 14.882C19.0831 14.882 20.7822 14.882 21.5868 14.882C21.8611 14.882 22.0858 15.1039 22.0559 15.3752C21.7946 17.7462 19.6833 19.8232 17.1173 19.8232C14.5514 19.8232 12.4401 17.7462 12.1788 15.3752Z" fill="#415EE6"/>
<path fill-rule="evenodd" clip-rule="evenodd" d="M13.6275 16.1173C14.1617 17.5079 15.5439 18.5879 17.1173 18.5879C18.6908 18.5879 20.073 17.5079 20.6072 16.1173L13.6275 16.1173ZM12.6479 14.882C12.3736 14.882 12.1489 15.1039 12.1788 15.3752C12.4401 17.7462 14.5514 19.8232 17.1173 19.8232C19.6833 19.8232 21.7946 17.7462 22.0559 15.3752C22.0858 15.1039 21.8611 14.882 21.5868 14.882L12.6479 14.882Z" fill="#415EE6"/>
<path fill-rule="evenodd" clip-rule="evenodd" d="M7.23535 14.8825C7.23535 9.42454 11.6599 5 17.1178 5C22.5758 5 27.0003 9.42454 27.0003 14.8825C27.0003 20.3404 22.5758 24.765 17.1178 24.765C11.6599 24.765 7.23535 20.3404 7.23535 14.8825ZM17.1178 7.99469C13.3138 7.99469 10.23 11.0785 10.23 14.8825C10.23 18.6865 13.3138 21.7703 17.1178 21.7703C20.9219 21.7703 24.0056 18.6865 24.0056 14.8825C24.0056 11.0785 20.9219 7.99469 17.1178 7.99469Z" fill="#415EE6"/>
<path d="M6 6.64648H6.00165V32.9998H6V6.64648Z" fill="#415EE6"/>
<path fill-rule="evenodd" clip-rule="evenodd" d="M7.23535 5H10.5295V12.4119L8.88243 14.8825L10.5295 17.3531V28.0591H7.23535V5Z" fill="#415EE6"/>
<circle cx="14.6468" cy="12.4114" r="0.823541" fill="#415EE6"/>
<circle cx="19.5892" cy="12.4114" r="0.823541" fill="#415EE6"/>
</g>
<defs>
<clipPath id="clip0_1030_105">
<rect width="32" height="32" rx="16" fill="white"/>
</clipPath>
</defs>
</svg>
