<svg width="227" height="27" viewBox="0 0 227 27" fill="none" xmlns="http://www.w3.org/2000/svg">
<path d="M6.2471 20.1924C5.0791 20.1924 4.0391 19.9924 3.1271 19.5924C2.2151 19.1924 1.4951 18.6484 0.967102 17.9604C0.439102 17.2564 0.143102 16.4724 0.0791016 15.6084H4.1351C4.1831 16.0724 4.3991 16.4484 4.7831 16.7364C5.1671 17.0244 5.6391 17.1684 6.1991 17.1684C6.7111 17.1684 7.1031 17.0724 7.3751 16.8804C7.6631 16.6724 7.8071 16.4084 7.8071 16.0884C7.8071 15.7044 7.6071 15.4244 7.2071 15.2484C6.8071 15.0564 6.1591 14.8484 5.2631 14.6244C4.3031 14.4004 3.5031 14.1684 2.8631 13.9284C2.2231 13.6724 1.6711 13.2804 1.2071 12.7524C0.743102 12.2084 0.511102 11.4804 0.511102 10.5684C0.511102 9.80037 0.719102 9.10437 1.1351 8.48037C1.5671 7.84037 2.1911 7.33637 3.0071 6.96837C3.8391 6.60037 4.8231 6.41637 5.9591 6.41637C7.6391 6.41637 8.9591 6.83237 9.9191 7.66437C10.8951 8.49637 11.4551 9.60037 11.5991 10.9764H7.8071C7.7431 10.5124 7.5351 10.1444 7.1831 9.87237C6.8471 9.60037 6.3991 9.46437 5.8391 9.46437C5.3591 9.46437 4.9911 9.56037 4.7351 9.75237C4.4791 9.92837 4.3511 10.1764 4.3511 10.4964C4.3511 10.8804 4.5511 11.1684 4.9511 11.3604C5.3671 11.5524 6.0071 11.7444 6.8711 11.9364C7.8631 12.1924 8.6711 12.4484 9.2951 12.7044C9.9191 12.9444 10.4631 13.3444 10.9271 13.9044C11.4071 14.4484 11.6551 15.1844 11.6711 16.1124C11.6711 16.8964 11.4471 17.6004 10.9991 18.2244C10.5671 18.8324 9.9351 19.3124 9.1031 19.6644C8.2871 20.0164 7.3351 20.1924 6.2471 20.1924Z" fill="#049579"/>
<path d="M20.2779 20.1924C18.9659 20.1924 17.7819 19.9124 16.7259 19.3524C15.6859 18.7924 14.8619 17.9924 14.2539 16.9524C13.6619 15.9124 13.3659 14.6964 13.3659 13.3044C13.3659 11.9284 13.6699 10.7204 14.2779 9.68037C14.8859 8.62437 15.7179 7.81637 16.7739 7.25637C17.8299 6.69637 19.0139 6.41637 20.3259 6.41637C21.6379 6.41637 22.8219 6.69637 23.8779 7.25637C24.9339 7.81637 25.7659 8.62437 26.3739 9.68037C26.9819 10.7204 27.2859 11.9284 27.2859 13.3044C27.2859 14.6804 26.9739 15.8964 26.3499 16.9524C25.7419 17.9924 24.9019 18.7924 23.8299 19.3524C22.7739 19.9124 21.5899 20.1924 20.2779 20.1924ZM20.2779 16.6404C21.0619 16.6404 21.7259 16.3524 22.2699 15.7764C22.8299 15.2004 23.1099 14.3764 23.1099 13.3044C23.1099 12.2324 22.8379 11.4084 22.2939 10.8324C21.7659 10.2564 21.1099 9.96837 20.3259 9.96837C19.5259 9.96837 18.8619 10.2564 18.3339 10.8324C17.8059 11.3924 17.5419 12.2164 17.5419 13.3044C17.5419 14.3764 17.7979 15.2004 18.3099 15.7764C18.8379 16.3524 19.4939 16.6404 20.2779 16.6404Z" fill="#049579"/>
<path d="M28.6472 13.3044C28.6472 11.9124 28.9272 10.6964 29.4872 9.65637C30.0632 8.61637 30.8552 7.81637 31.8632 7.25637C32.8872 6.69637 34.0552 6.41637 35.3672 6.41637C37.0472 6.41637 38.4472 6.85637 39.5672 7.73637C40.7032 8.61637 41.4472 9.85637 41.7992 11.4564H37.4312C37.0632 10.4324 36.3512 9.92037 35.2952 9.92037C34.5432 9.92037 33.9432 10.2164 33.4952 10.8084C33.0472 11.3844 32.8232 12.2164 32.8232 13.3044C32.8232 14.3924 33.0472 15.2324 33.4952 15.8244C33.9432 16.4004 34.5432 16.6884 35.2952 16.6884C36.3512 16.6884 37.0632 16.1764 37.4312 15.1524H41.7992C41.4472 16.7204 40.7032 17.9524 39.5672 18.8484C38.4312 19.7444 37.0312 20.1924 35.3672 20.1924C34.0552 20.1924 32.8872 19.9124 31.8632 19.3524C30.8552 18.7924 30.0632 17.9924 29.4872 16.9524C28.9272 15.9124 28.6472 14.6964 28.6472 13.3044Z" fill="#049579"/>
<path d="M46.0584 5.21637C45.3384 5.21637 44.7464 5.00837 44.2824 4.59237C43.8344 4.16037 43.6104 3.63237 43.6104 3.00837C43.6104 2.36837 43.8344 1.84037 44.2824 1.42437C44.7464 0.992367 45.3384 0.776367 46.0584 0.776367C46.7624 0.776367 47.3384 0.992367 47.7864 1.42437C48.2504 1.84037 48.4824 2.36837 48.4824 3.00837C48.4824 3.63237 48.2504 4.16037 47.7864 4.59237C47.3384 5.00837 46.7624 5.21637 46.0584 5.21637ZM48.0984 6.60837V20.0004H43.9944V6.60837H48.0984Z" fill="#049579"/>
<path d="M50.2565 13.2804C50.2565 11.9044 50.5125 10.6964 51.0245 9.65637C51.5525 8.61637 52.2645 7.81637 53.1605 7.25637C54.0565 6.69637 55.0565 6.41637 56.1605 6.41637C57.1045 6.41637 57.9285 6.60837 58.6325 6.99237C59.3525 7.37637 59.9045 7.88037 60.2885 8.50437V6.60837H64.3925V20.0004H60.2885V18.1044C59.8885 18.7284 59.3285 19.2324 58.6085 19.6164C57.9045 20.0004 57.0805 20.1924 56.1365 20.1924C55.0485 20.1924 54.0565 19.9124 53.1605 19.3524C52.2645 18.7764 51.5525 17.9684 51.0245 16.9284C50.5125 15.8724 50.2565 14.6564 50.2565 13.2804ZM60.2885 13.3044C60.2885 12.2804 60.0005 11.4724 59.4245 10.8804C58.8645 10.2884 58.1765 9.99237 57.3605 9.99237C56.5445 9.99237 55.8485 10.2884 55.2725 10.8804C54.7125 11.4564 54.4325 12.2564 54.4325 13.2804C54.4325 14.3044 54.7125 15.1204 55.2725 15.7284C55.8485 16.3204 56.5445 16.6164 57.3605 16.6164C58.1765 16.6164 58.8645 16.3204 59.4245 15.7284C60.0005 15.1364 60.2885 14.3284 60.2885 13.3044Z" fill="#049579"/>
<path d="M71.4656 2.24037V20.0004H67.3616V2.24037H71.4656Z" fill="#049579"/>
<path d="M83.6297 8.50437C84.0297 7.88037 84.5817 7.37637 85.2857 6.99237C85.9897 6.60837 86.8137 6.41637 87.7577 6.41637C88.8617 6.41637 89.8617 6.69637 90.7577 7.25637C91.6537 7.81637 92.3577 8.61637 92.8697 9.65637C93.3977 10.6964 93.6617 11.9044 93.6617 13.2804C93.6617 14.6564 93.3977 15.8724 92.8697 16.9284C92.3577 17.9684 91.6537 18.7764 90.7577 19.3524C89.8617 19.9124 88.8617 20.1924 87.7577 20.1924C86.8297 20.1924 86.0057 20.0004 85.2857 19.6164C84.5817 19.2324 84.0297 18.7364 83.6297 18.1284V26.3844H79.5257V6.60837H83.6297V8.50437ZM89.4857 13.2804C89.4857 12.2564 89.1977 11.4564 88.6217 10.8804C88.0617 10.2884 87.3657 9.99237 86.5337 9.99237C85.7177 9.99237 85.0217 10.2884 84.4457 10.8804C83.8857 11.4724 83.6057 12.2804 83.6057 13.3044C83.6057 14.3284 83.8857 15.1364 84.4457 15.7284C85.0217 16.3204 85.7177 16.6164 86.5337 16.6164C87.3497 16.6164 88.0457 16.3204 88.6217 15.7284C89.1977 15.1204 89.4857 14.3044 89.4857 13.2804Z" fill="#049579"/>
<path d="M99.9187 8.84037C100.399 8.10437 100.999 7.52837 101.719 7.11237C102.439 6.68037 103.239 6.46437 104.119 6.46437V10.8084H102.991C101.967 10.8084 101.199 11.0324 100.687 11.4804C100.175 11.9124 99.9187 12.6804 99.9187 13.7844V20.0004H95.8147V6.60837H99.9187V8.84037Z" fill="#049579"/>
<path d="M118.704 13.0884C118.704 13.4724 118.68 13.8724 118.632 14.2884H109.344C109.408 15.1204 109.672 15.7604 110.136 16.2084C110.616 16.6404 111.2 16.8564 111.888 16.8564C112.912 16.8564 113.624 16.4244 114.024 15.5604H118.392C118.168 16.4404 117.76 17.2324 117.168 17.9364C116.592 18.6404 115.864 19.1924 114.984 19.5924C114.104 19.9924 113.12 20.1924 112.032 20.1924C110.72 20.1924 109.552 19.9124 108.528 19.3524C107.504 18.7924 106.704 17.9924 106.128 16.9524C105.552 15.9124 105.264 14.6964 105.264 13.3044C105.264 11.9124 105.544 10.6964 106.104 9.65637C106.68 8.61637 107.48 7.81637 108.504 7.25637C109.528 6.69637 110.704 6.41637 112.032 6.41637C113.328 6.41637 114.48 6.68837 115.488 7.23237C116.496 7.77637 117.28 8.55237 117.84 9.56037C118.416 10.5684 118.704 11.7444 118.704 13.0884ZM114.504 12.0084C114.504 11.3044 114.264 10.7444 113.784 10.3284C113.304 9.91237 112.704 9.70437 111.984 9.70437C111.296 9.70437 110.712 9.90437 110.232 10.3044C109.768 10.7044 109.48 11.2724 109.368 12.0084H114.504Z" fill="#049579"/>
<path d="M126.317 20.1924C125.149 20.1924 124.109 19.9924 123.197 19.5924C122.285 19.1924 121.565 18.6484 121.037 17.9604C120.509 17.2564 120.213 16.4724 120.149 15.6084H124.205C124.253 16.0724 124.469 16.4484 124.853 16.7364C125.237 17.0244 125.709 17.1684 126.269 17.1684C126.781 17.1684 127.173 17.0724 127.445 16.8804C127.733 16.6724 127.877 16.4084 127.877 16.0884C127.877 15.7044 127.677 15.4244 127.277 15.2484C126.877 15.0564 126.229 14.8484 125.333 14.6244C124.373 14.4004 123.573 14.1684 122.933 13.9284C122.293 13.6724 121.741 13.2804 121.277 12.7524C120.813 12.2084 120.581 11.4804 120.581 10.5684C120.581 9.80037 120.789 9.10437 121.205 8.48037C121.637 7.84037 122.261 7.33637 123.077 6.96837C123.909 6.60037 124.893 6.41637 126.029 6.41637C127.709 6.41637 129.029 6.83237 129.989 7.66437C130.965 8.49637 131.525 9.60037 131.669 10.9764H127.877C127.813 10.5124 127.605 10.1444 127.253 9.87237C126.917 9.60037 126.469 9.46437 125.909 9.46437C125.429 9.46437 125.061 9.56037 124.805 9.75237C124.549 9.92837 124.421 10.1764 124.421 10.4964C124.421 10.8804 124.621 11.1684 125.021 11.3604C125.437 11.5524 126.077 11.7444 126.941 11.9364C127.933 12.1924 128.741 12.4484 129.365 12.7044C129.989 12.9444 130.533 13.3444 130.997 13.9044C131.477 14.4484 131.725 15.1844 131.741 16.1124C131.741 16.8964 131.517 17.6004 131.069 18.2244C130.637 18.8324 130.005 19.3124 129.173 19.6644C128.357 20.0164 127.405 20.1924 126.317 20.1924Z" fill="#049579"/>
<path d="M133.436 13.3044C133.436 11.9124 133.716 10.6964 134.276 9.65637C134.852 8.61637 135.644 7.81637 136.652 7.25637C137.676 6.69637 138.844 6.41637 140.156 6.41637C141.836 6.41637 143.236 6.85637 144.356 7.73637C145.492 8.61637 146.236 9.85637 146.588 11.4564H142.22C141.852 10.4324 141.14 9.92037 140.084 9.92037C139.332 9.92037 138.732 10.2164 138.284 10.8084C137.836 11.3844 137.612 12.2164 137.612 13.3044C137.612 14.3924 137.836 15.2324 138.284 15.8244C138.732 16.4004 139.332 16.6884 140.084 16.6884C141.14 16.6884 141.852 16.1764 142.22 15.1524H146.588C146.236 16.7204 145.492 17.9524 144.356 18.8484C143.22 19.7444 141.82 20.1924 140.156 20.1924C138.844 20.1924 137.676 19.9124 136.652 19.3524C135.644 18.7924 134.852 17.9924 134.276 16.9524C133.716 15.9124 133.436 14.6964 133.436 13.3044Z" fill="#049579"/>
<path d="M152.887 8.84037C153.367 8.10437 153.967 7.52837 154.687 7.11237C155.407 6.68037 156.207 6.46437 157.087 6.46437V10.8084H155.959C154.935 10.8084 154.167 11.0324 153.655 11.4804C153.143 11.9124 152.887 12.6804 152.887 13.7844V20.0004H148.783V6.60837H152.887V8.84037Z" fill="#049579"/>
<path d="M161.113 5.21637C160.393 5.21637 159.801 5.00837 159.337 4.59237C158.889 4.16037 158.665 3.63237 158.665 3.00837C158.665 2.36837 158.889 1.84037 159.337 1.42437C159.801 0.992367 160.393 0.776367 161.113 0.776367C161.817 0.776367 162.393 0.992367 162.841 1.42437C163.305 1.84037 163.537 2.36837 163.537 3.00837C163.537 3.63237 163.305 4.16037 162.841 4.59237C162.393 5.00837 161.817 5.21637 161.113 5.21637ZM163.153 6.60837V20.0004H159.049V6.60837H163.153Z" fill="#049579"/>
<path d="M170.231 8.50437C170.615 7.88037 171.167 7.37637 171.887 6.99237C172.607 6.60837 173.431 6.41637 174.359 6.41637C175.463 6.41637 176.463 6.69637 177.359 7.25637C178.255 7.81637 178.959 8.61637 179.471 9.65637C179.999 10.6964 180.263 11.9044 180.263 13.2804C180.263 14.6564 179.999 15.8724 179.471 16.9284C178.959 17.9684 178.255 18.7764 177.359 19.3524C176.463 19.9124 175.463 20.1924 174.359 20.1924C173.415 20.1924 172.591 20.0084 171.887 19.6404C171.183 19.2564 170.631 18.7524 170.231 18.1284V20.0004H166.127V2.24037H170.231V8.50437ZM176.087 13.2804C176.087 12.2564 175.799 11.4564 175.223 10.8804C174.663 10.2884 173.967 9.99237 173.135 9.99237C172.319 9.99237 171.623 10.2884 171.047 10.8804C170.487 11.4724 170.207 12.2804 170.207 13.3044C170.207 14.3284 170.487 15.1364 171.047 15.7284C171.623 16.3204 172.319 16.6164 173.135 16.6164C173.951 16.6164 174.647 16.3204 175.223 15.7284C175.799 15.1204 176.087 14.3044 176.087 13.2804Z" fill="#049579"/>
<path d="M184.48 5.21637C183.76 5.21637 183.168 5.00837 182.704 4.59237C182.256 4.16037 182.032 3.63237 182.032 3.00837C182.032 2.36837 182.256 1.84037 182.704 1.42437C183.168 0.992367 183.76 0.776367 184.48 0.776367C185.184 0.776367 185.76 0.992367 186.208 1.42437C186.672 1.84037 186.904 2.36837 186.904 3.00837C186.904 3.63237 186.672 4.16037 186.208 4.59237C185.76 5.00837 185.184 5.21637 184.48 5.21637ZM186.52 6.60837V20.0004H182.416V6.60837H186.52Z" fill="#049579"/>
<path d="M197.654 6.46437C199.222 6.46437 200.47 6.97637 201.398 8.00037C202.342 9.00837 202.814 10.4004 202.814 12.1764V20.0004H198.734V12.7284C198.734 11.8324 198.502 11.1364 198.038 10.6404C197.574 10.1444 196.95 9.89637 196.166 9.89637C195.382 9.89637 194.758 10.1444 194.294 10.6404C193.83 11.1364 193.598 11.8324 193.598 12.7284V20.0004H189.494V6.60837H193.598V8.38437C194.014 7.79237 194.574 7.32837 195.278 6.99237C195.982 6.64037 196.774 6.46437 197.654 6.46437Z" fill="#049579"/>
<path d="M210.754 6.41637C211.698 6.41637 212.522 6.60837 213.226 6.99237C213.946 7.37637 214.498 7.88037 214.882 8.50437V6.60837H218.986V19.9764C218.986 21.2084 218.738 22.3204 218.242 23.3124C217.762 24.3204 217.018 25.1204 216.01 25.7124C215.018 26.3044 213.778 26.6004 212.29 26.6004C210.306 26.6004 208.698 26.1284 207.466 25.1844C206.234 24.2564 205.53 22.9924 205.354 21.3924H209.41C209.538 21.9044 209.842 22.3044 210.322 22.5924C210.802 22.8964 211.394 23.0484 212.098 23.0484C212.946 23.0484 213.618 22.8004 214.114 22.3044C214.626 21.8244 214.882 21.0484 214.882 19.9764V18.0804C214.482 18.7044 213.93 19.2164 213.226 19.6164C212.522 20.0004 211.698 20.1924 210.754 20.1924C209.65 20.1924 208.65 19.9124 207.754 19.3524C206.858 18.7764 206.146 17.9684 205.618 16.9284C205.106 15.8724 204.85 14.6564 204.85 13.2804C204.85 11.9044 205.106 10.6964 205.618 9.65637C206.146 8.61637 206.858 7.81637 207.754 7.25637C208.65 6.69637 209.65 6.41637 210.754 6.41637ZM214.882 13.3044C214.882 12.2804 214.594 11.4724 214.018 10.8804C213.458 10.2884 212.77 9.99237 211.954 9.99237C211.138 9.99237 210.442 10.2884 209.866 10.8804C209.306 11.4564 209.026 12.2564 209.026 13.2804C209.026 14.3044 209.306 15.1204 209.866 15.7284C210.442 16.3204 211.138 16.6164 211.954 16.6164C212.77 16.6164 213.458 16.3204 214.018 15.7284C214.594 15.1364 214.882 14.3284 214.882 13.3044Z" fill="#049579"/>
<path d="M223.875 20.1924C223.155 20.1924 222.563 19.9844 222.099 19.5684C221.651 19.1364 221.427 18.6084 221.427 17.9844C221.427 17.3444 221.651 16.8084 222.099 16.3764C222.563 15.9444 223.155 15.7284 223.875 15.7284C224.579 15.7284 225.155 15.9444 225.603 16.3764C226.067 16.8084 226.299 17.3444 226.299 17.9844C226.299 18.6084 226.067 19.1364 225.603 19.5684C225.155 19.9844 224.579 20.1924 223.875 20.1924Z" fill="#049579"/>
</svg>
