<svg width="307" height="36" viewBox="0 0 307 36" fill="none" xmlns="http://www.w3.org/2000/svg">
<g clip-path="url(#clip0_1048_116)">
<rect width="17" height="23" transform="translate(0.440918 6.5)" fill="white"/>
<path d="M4.44335 19.3993C4.41613 19.1797 4.62078 19 4.87054 19C5.60337 19 7.15066 19 8.94092 19C10.7312 19 12.2785 19 13.0113 19C13.2611 19 13.4657 19.1797 13.4385 19.3993C13.2005 21.3186 11.2777 23 8.94092 23C6.60415 23 4.68132 21.3186 4.44335 19.3993Z" fill="#415EE6"/>
<path fill-rule="evenodd" clip-rule="evenodd" d="M5.76274 20C6.24918 21.1257 7.508 22 8.94092 22C10.3738 22 11.6327 21.1257 12.1191 20L5.76274 20ZM4.87054 19C4.62078 19 4.41613 19.1797 4.44335 19.3993C4.68132 21.3186 6.60415 23 8.94092 23C11.2777 23 13.2005 21.3186 13.4385 19.3993C13.4657 19.1797 13.2611 19 13.0113 19L4.87054 19Z" fill="#415EE6"/>
<path fill-rule="evenodd" clip-rule="evenodd" d="M0.440918 18.5C0.440918 13.8056 4.2465 10 8.94092 10C13.6353 10 17.4409 13.8056 17.4409 18.5C17.4409 23.1944 13.6353 27 8.94092 27C4.2465 27 0.440918 23.1944 0.440918 18.5ZM8.94092 12.5758C5.66905 12.5758 3.01668 15.2281 3.01668 18.5C3.01668 21.7719 5.66905 24.4242 8.94092 24.4242C12.2128 24.4242 14.8652 21.7719 14.8652 18.5C14.8652 15.2281 12.2128 12.5758 8.94092 12.5758Z" fill="#415EE6"/>
<path fill-rule="evenodd" clip-rule="evenodd" d="M0.440918 10H3.44092V16L1.94092 19.4286L3.44092 21.7857V32H0.440918V10Z" fill="#415EE6"/>
<circle cx="6.44092" cy="17" r="1" fill="#415EE6"/>
<circle cx="11.4409" cy="17" r="1" fill="#415EE6"/>
</g>
<path d="M32.3769 26.192C31.2089 26.192 30.1689 25.992 29.2569 25.592C28.3449 25.192 27.6249 24.648 27.0969 23.96C26.5689 23.256 26.2729 22.472 26.2089 21.608H30.2649C30.3129 22.072 30.5289 22.448 30.9129 22.736C31.2969 23.024 31.7689 23.168 32.3289 23.168C32.8409 23.168 33.2329 23.072 33.5049 22.88C33.7929 22.672 33.9369 22.408 33.9369 22.088C33.9369 21.704 33.7369 21.424 33.3369 21.248C32.9369 21.056 32.2889 20.848 31.3929 20.624C30.4329 20.4 29.6329 20.168 28.9929 19.928C28.3529 19.672 27.8009 19.28 27.3369 18.752C26.8729 18.208 26.6409 17.48 26.6409 16.568C26.6409 15.8 26.8489 15.104 27.2649 14.48C27.6969 13.84 28.3209 13.336 29.1369 12.968C29.9689 12.6 30.9529 12.416 32.0889 12.416C33.7689 12.416 35.0889 12.832 36.0489 13.664C37.0249 14.496 37.5849 15.6 37.7289 16.976H33.9369C33.8729 16.512 33.6649 16.144 33.3129 15.872C32.9769 15.6 32.5289 15.464 31.9689 15.464C31.4889 15.464 31.1209 15.56 30.8649 15.752C30.6089 15.928 30.4809 16.176 30.4809 16.496C30.4809 16.88 30.6809 17.168 31.0809 17.36C31.4969 17.552 32.1369 17.744 33.0009 17.936C33.9929 18.192 34.8009 18.448 35.4249 18.704C36.0489 18.944 36.5929 19.344 37.0569 19.904C37.5369 20.448 37.7849 21.184 37.8009 22.112C37.8009 22.896 37.5769 23.6 37.1289 24.224C36.6969 24.832 36.0649 25.312 35.2329 25.664C34.4169 26.016 33.4649 26.192 32.3769 26.192ZM46.4077 26.192C45.0957 26.192 43.9117 25.912 42.8557 25.352C41.8157 24.792 40.9917 23.992 40.3837 22.952C39.7917 21.912 39.4957 20.696 39.4957 19.304C39.4957 17.928 39.7997 16.72 40.4077 15.68C41.0157 14.624 41.8477 13.816 42.9037 13.256C43.9597 12.696 45.1437 12.416 46.4557 12.416C47.7677 12.416 48.9517 12.696 50.0077 13.256C51.0637 13.816 51.8957 14.624 52.5037 15.68C53.1117 16.72 53.4157 17.928 53.4157 19.304C53.4157 20.68 53.1037 21.896 52.4797 22.952C51.8717 23.992 51.0317 24.792 49.9597 25.352C48.9037 25.912 47.7197 26.192 46.4077 26.192ZM46.4077 22.64C47.1917 22.64 47.8557 22.352 48.3997 21.776C48.9597 21.2 49.2397 20.376 49.2397 19.304C49.2397 18.232 48.9677 17.408 48.4237 16.832C47.8957 16.256 47.2397 15.968 46.4557 15.968C45.6557 15.968 44.9917 16.256 44.4637 16.832C43.9357 17.392 43.6717 18.216 43.6717 19.304C43.6717 20.376 43.9277 21.2 44.4397 21.776C44.9677 22.352 45.6237 22.64 46.4077 22.64ZM54.777 19.304C54.777 17.912 55.057 16.696 55.617 15.656C56.193 14.616 56.985 13.816 57.993 13.256C59.017 12.696 60.185 12.416 61.497 12.416C63.177 12.416 64.577 12.856 65.697 13.736C66.833 14.616 67.577 15.856 67.929 17.456H63.561C63.193 16.432 62.481 15.92 61.425 15.92C60.673 15.92 60.073 16.216 59.625 16.808C59.177 17.384 58.953 18.216 58.953 19.304C58.953 20.392 59.177 21.232 59.625 21.824C60.073 22.4 60.673 22.688 61.425 22.688C62.481 22.688 63.193 22.176 63.561 21.152H67.929C67.577 22.72 66.833 23.952 65.697 24.848C64.561 25.744 63.161 26.192 61.497 26.192C60.185 26.192 59.017 25.912 57.993 25.352C56.985 24.792 56.193 23.992 55.617 22.952C55.057 21.912 54.777 20.696 54.777 19.304ZM72.1882 11.216C71.4682 11.216 70.8762 11.008 70.4122 10.592C69.9642 10.16 69.7402 9.632 69.7402 9.008C69.7402 8.368 69.9642 7.84 70.4122 7.424C70.8762 6.992 71.4682 6.776 72.1882 6.776C72.8922 6.776 73.4682 6.992 73.9162 7.424C74.3802 7.84 74.6122 8.368 74.6122 9.008C74.6122 9.632 74.3802 10.16 73.9162 10.592C73.4682 11.008 72.8922 11.216 72.1882 11.216ZM74.2282 12.608V26H70.1242V12.608H74.2282ZM76.3864 19.28C76.3864 17.904 76.6424 16.696 77.1544 15.656C77.6824 14.616 78.3944 13.816 79.2904 13.256C80.1864 12.696 81.1864 12.416 82.2904 12.416C83.2344 12.416 84.0584 12.608 84.7624 12.992C85.4824 13.376 86.0344 13.88 86.4184 14.504V12.608H90.5224V26H86.4184V24.104C86.0184 24.728 85.4584 25.232 84.7384 25.616C84.0344 26 83.2104 26.192 82.2664 26.192C81.1784 26.192 80.1864 25.912 79.2904 25.352C78.3944 24.776 77.6824 23.968 77.1544 22.928C76.6424 21.872 76.3864 20.656 76.3864 19.28ZM86.4184 19.304C86.4184 18.28 86.1304 17.472 85.5544 16.88C84.9944 16.288 84.3064 15.992 83.4904 15.992C82.6744 15.992 81.9784 16.288 81.4024 16.88C80.8424 17.456 80.5624 18.256 80.5624 19.28C80.5624 20.304 80.8424 21.12 81.4024 21.728C81.9784 22.32 82.6744 22.616 83.4904 22.616C84.3064 22.616 84.9944 22.32 85.5544 21.728C86.1304 21.136 86.4184 20.328 86.4184 19.304ZM97.5954 8.24V26H93.4914V8.24H97.5954ZM109.759 14.504C110.159 13.88 110.711 13.376 111.415 12.992C112.119 12.608 112.943 12.416 113.887 12.416C114.991 12.416 115.991 12.696 116.887 13.256C117.783 13.816 118.487 14.616 118.999 15.656C119.527 16.696 119.791 17.904 119.791 19.28C119.791 20.656 119.527 21.872 118.999 22.928C118.487 23.968 117.783 24.776 116.887 25.352C115.991 25.912 114.991 26.192 113.887 26.192C112.959 26.192 112.135 26 111.415 25.616C110.711 25.232 110.159 24.736 109.759 24.128V32.384H105.655V12.608H109.759V14.504ZM115.615 19.28C115.615 18.256 115.327 17.456 114.751 16.88C114.191 16.288 113.495 15.992 112.663 15.992C111.847 15.992 111.151 16.288 110.575 16.88C110.015 17.472 109.735 18.28 109.735 19.304C109.735 20.328 110.015 21.136 110.575 21.728C111.151 22.32 111.847 22.616 112.663 22.616C113.479 22.616 114.175 22.32 114.751 21.728C115.327 21.12 115.615 20.304 115.615 19.28ZM126.049 14.84C126.529 14.104 127.129 13.528 127.849 13.112C128.569 12.68 129.369 12.464 130.249 12.464V16.808H129.121C128.097 16.808 127.329 17.032 126.817 17.48C126.305 17.912 126.049 18.68 126.049 19.784V26H121.945V12.608H126.049V14.84ZM144.834 19.088C144.834 19.472 144.81 19.872 144.762 20.288H135.474C135.538 21.12 135.802 21.76 136.266 22.208C136.746 22.64 137.33 22.856 138.018 22.856C139.042 22.856 139.754 22.424 140.154 21.56H144.522C144.298 22.44 143.89 23.232 143.298 23.936C142.722 24.64 141.994 25.192 141.114 25.592C140.234 25.992 139.25 26.192 138.162 26.192C136.85 26.192 135.682 25.912 134.658 25.352C133.634 24.792 132.834 23.992 132.258 22.952C131.682 21.912 131.394 20.696 131.394 19.304C131.394 17.912 131.674 16.696 132.234 15.656C132.81 14.616 133.61 13.816 134.634 13.256C135.658 12.696 136.834 12.416 138.162 12.416C139.458 12.416 140.61 12.688 141.618 13.232C142.626 13.776 143.41 14.552 143.97 15.56C144.546 16.568 144.834 17.744 144.834 19.088ZM140.634 18.008C140.634 17.304 140.394 16.744 139.914 16.328C139.434 15.912 138.834 15.704 138.114 15.704C137.426 15.704 136.842 15.904 136.362 16.304C135.898 16.704 135.61 17.272 135.498 18.008H140.634ZM152.447 26.192C151.279 26.192 150.239 25.992 149.327 25.592C148.415 25.192 147.695 24.648 147.167 23.96C146.639 23.256 146.343 22.472 146.279 21.608H150.335C150.383 22.072 150.599 22.448 150.983 22.736C151.367 23.024 151.839 23.168 152.399 23.168C152.911 23.168 153.303 23.072 153.575 22.88C153.863 22.672 154.007 22.408 154.007 22.088C154.007 21.704 153.807 21.424 153.407 21.248C153.007 21.056 152.359 20.848 151.463 20.624C150.503 20.4 149.703 20.168 149.063 19.928C148.423 19.672 147.871 19.28 147.407 18.752C146.943 18.208 146.711 17.48 146.711 16.568C146.711 15.8 146.919 15.104 147.335 14.48C147.767 13.84 148.391 13.336 149.207 12.968C150.039 12.6 151.023 12.416 152.159 12.416C153.839 12.416 155.159 12.832 156.119 13.664C157.095 14.496 157.655 15.6 157.799 16.976H154.007C153.943 16.512 153.735 16.144 153.383 15.872C153.047 15.6 152.599 15.464 152.039 15.464C151.559 15.464 151.191 15.56 150.935 15.752C150.679 15.928 150.551 16.176 150.551 16.496C150.551 16.88 150.751 17.168 151.151 17.36C151.567 17.552 152.207 17.744 153.071 17.936C154.063 18.192 154.871 18.448 155.495 18.704C156.119 18.944 156.663 19.344 157.127 19.904C157.607 20.448 157.855 21.184 157.871 22.112C157.871 22.896 157.647 23.6 157.199 24.224C156.767 24.832 156.135 25.312 155.303 25.664C154.487 26.016 153.535 26.192 152.447 26.192ZM159.566 19.304C159.566 17.912 159.846 16.696 160.406 15.656C160.982 14.616 161.774 13.816 162.782 13.256C163.806 12.696 164.974 12.416 166.286 12.416C167.966 12.416 169.366 12.856 170.486 13.736C171.622 14.616 172.366 15.856 172.718 17.456H168.35C167.982 16.432 167.27 15.92 166.214 15.92C165.462 15.92 164.862 16.216 164.414 16.808C163.966 17.384 163.742 18.216 163.742 19.304C163.742 20.392 163.966 21.232 164.414 21.824C164.862 22.4 165.462 22.688 166.214 22.688C167.27 22.688 167.982 22.176 168.35 21.152H172.718C172.366 22.72 171.622 23.952 170.486 24.848C169.35 25.744 167.95 26.192 166.286 26.192C164.974 26.192 163.806 25.912 162.782 25.352C161.774 24.792 160.982 23.992 160.406 22.952C159.846 21.912 159.566 20.696 159.566 19.304ZM179.017 14.84C179.497 14.104 180.097 13.528 180.817 13.112C181.537 12.68 182.337 12.464 183.217 12.464V16.808H182.089C181.065 16.808 180.297 17.032 179.785 17.48C179.273 17.912 179.017 18.68 179.017 19.784V26H174.913V12.608H179.017V14.84ZM187.243 11.216C186.523 11.216 185.931 11.008 185.467 10.592C185.019 10.16 184.795 9.632 184.795 9.008C184.795 8.368 185.019 7.84 185.467 7.424C185.931 6.992 186.523 6.776 187.243 6.776C187.947 6.776 188.523 6.992 188.971 7.424C189.435 7.84 189.667 8.368 189.667 9.008C189.667 9.632 189.435 10.16 188.971 10.592C188.523 11.008 187.947 11.216 187.243 11.216ZM189.283 12.608V26H185.179V12.608H189.283ZM196.361 14.504C196.745 13.88 197.297 13.376 198.017 12.992C198.737 12.608 199.561 12.416 200.489 12.416C201.593 12.416 202.593 12.696 203.489 13.256C204.385 13.816 205.089 14.616 205.601 15.656C206.129 16.696 206.393 17.904 206.393 19.28C206.393 20.656 206.129 21.872 205.601 22.928C205.089 23.968 204.385 24.776 203.489 25.352C202.593 25.912 201.593 26.192 200.489 26.192C199.545 26.192 198.721 26.008 198.017 25.64C197.313 25.256 196.761 24.752 196.361 24.128V26H192.257V8.24H196.361V14.504ZM202.217 19.28C202.217 18.256 201.929 17.456 201.353 16.88C200.793 16.288 200.097 15.992 199.265 15.992C198.449 15.992 197.753 16.288 197.177 16.88C196.617 17.472 196.337 18.28 196.337 19.304C196.337 20.328 196.617 21.136 197.177 21.728C197.753 22.32 198.449 22.616 199.265 22.616C200.081 22.616 200.777 22.32 201.353 21.728C201.929 21.12 202.217 20.304 202.217 19.28ZM210.61 11.216C209.89 11.216 209.298 11.008 208.834 10.592C208.386 10.16 208.162 9.632 208.162 9.008C208.162 8.368 208.386 7.84 208.834 7.424C209.298 6.992 209.89 6.776 210.61 6.776C211.314 6.776 211.89 6.992 212.338 7.424C212.802 7.84 213.034 8.368 213.034 9.008C213.034 9.632 212.802 10.16 212.338 10.592C211.89 11.008 211.314 11.216 210.61 11.216ZM212.65 12.608V26H208.546V12.608H212.65ZM223.784 12.464C225.352 12.464 226.6 12.976 227.528 14C228.472 15.008 228.944 16.4 228.944 18.176V26H224.864V18.728C224.864 17.832 224.632 17.136 224.168 16.64C223.704 16.144 223.08 15.896 222.296 15.896C221.512 15.896 220.888 16.144 220.424 16.64C219.96 17.136 219.728 17.832 219.728 18.728V26H215.624V12.608H219.728V14.384C220.144 13.792 220.704 13.328 221.408 12.992C222.112 12.64 222.904 12.464 223.784 12.464ZM236.884 12.416C237.828 12.416 238.652 12.608 239.356 12.992C240.076 13.376 240.628 13.88 241.012 14.504V12.608H245.116V25.976C245.116 27.208 244.868 28.32 244.372 29.312C243.892 30.32 243.148 31.12 242.14 31.712C241.148 32.304 239.908 32.6 238.42 32.6C236.436 32.6 234.828 32.128 233.596 31.184C232.364 30.256 231.66 28.992 231.484 27.392H235.54C235.668 27.904 235.972 28.304 236.452 28.592C236.932 28.896 237.524 29.048 238.228 29.048C239.076 29.048 239.748 28.8 240.244 28.304C240.756 27.824 241.012 27.048 241.012 25.976V24.08C240.612 24.704 240.06 25.216 239.356 25.616C238.652 26 237.828 26.192 236.884 26.192C235.78 26.192 234.78 25.912 233.884 25.352C232.988 24.776 232.276 23.968 231.748 22.928C231.236 21.872 230.98 20.656 230.98 19.28C230.98 17.904 231.236 16.696 231.748 15.656C232.276 14.616 232.988 13.816 233.884 13.256C234.78 12.696 235.78 12.416 236.884 12.416ZM241.012 19.304C241.012 18.28 240.724 17.472 240.148 16.88C239.588 16.288 238.9 15.992 238.084 15.992C237.268 15.992 236.572 16.288 235.996 16.88C235.436 17.456 235.156 18.256 235.156 19.28C235.156 20.304 235.436 21.12 235.996 21.728C236.572 22.32 237.268 22.616 238.084 22.616C238.9 22.616 239.588 22.32 240.148 21.728C240.724 21.136 241.012 20.328 241.012 19.304ZM266.395 12.608V26H262.291V24.176C261.875 24.768 261.307 25.248 260.587 25.616C259.883 25.968 259.099 26.144 258.235 26.144C257.211 26.144 256.307 25.92 255.523 25.472C254.739 25.008 254.131 24.344 253.699 23.48C253.267 22.616 253.051 21.6 253.051 20.432V12.608H257.131V19.88C257.131 20.776 257.363 21.472 257.827 21.968C258.291 22.464 258.915 22.712 259.699 22.712C260.499 22.712 261.131 22.464 261.595 21.968C262.059 21.472 262.291 20.776 262.291 19.88V12.608H266.395ZM274.791 26.192C273.623 26.192 272.583 25.992 271.671 25.592C270.759 25.192 270.039 24.648 269.511 23.96C268.983 23.256 268.687 22.472 268.623 21.608H272.679C272.727 22.072 272.943 22.448 273.327 22.736C273.711 23.024 274.183 23.168 274.743 23.168C275.255 23.168 275.647 23.072 275.919 22.88C276.207 22.672 276.351 22.408 276.351 22.088C276.351 21.704 276.151 21.424 275.751 21.248C275.351 21.056 274.703 20.848 273.807 20.624C272.847 20.4 272.047 20.168 271.407 19.928C270.767 19.672 270.215 19.28 269.751 18.752C269.287 18.208 269.055 17.48 269.055 16.568C269.055 15.8 269.263 15.104 269.679 14.48C270.111 13.84 270.735 13.336 271.551 12.968C272.383 12.6 273.367 12.416 274.503 12.416C276.183 12.416 277.503 12.832 278.463 13.664C279.439 14.496 279.999 15.6 280.143 16.976H276.351C276.287 16.512 276.079 16.144 275.727 15.872C275.391 15.6 274.943 15.464 274.383 15.464C273.903 15.464 273.535 15.56 273.279 15.752C273.023 15.928 272.895 16.176 272.895 16.496C272.895 16.88 273.095 17.168 273.495 17.36C273.911 17.552 274.551 17.744 275.415 17.936C276.407 18.192 277.215 18.448 277.839 18.704C278.463 18.944 279.007 19.344 279.471 19.904C279.951 20.448 280.199 21.184 280.215 22.112C280.215 22.896 279.991 23.6 279.543 24.224C279.111 24.832 278.479 25.312 277.647 25.664C276.831 26.016 275.879 26.192 274.791 26.192ZM281.91 19.28C281.91 17.904 282.166 16.696 282.678 15.656C283.206 14.616 283.918 13.816 284.814 13.256C285.71 12.696 286.71 12.416 287.814 12.416C288.758 12.416 289.582 12.608 290.286 12.992C291.006 13.376 291.558 13.88 291.942 14.504V12.608H296.046V26H291.942V24.104C291.542 24.728 290.982 25.232 290.262 25.616C289.558 26 288.734 26.192 287.79 26.192C286.702 26.192 285.71 25.912 284.814 25.352C283.918 24.776 283.206 23.968 282.678 22.928C282.166 21.872 281.91 20.656 281.91 19.28ZM291.942 19.304C291.942 18.28 291.654 17.472 291.078 16.88C290.518 16.288 289.83 15.992 289.014 15.992C288.198 15.992 287.502 16.288 286.926 16.88C286.366 17.456 286.086 18.256 286.086 19.28C286.086 20.304 286.366 21.12 286.926 21.728C287.502 22.32 288.198 22.616 289.014 22.616C289.83 22.616 290.518 22.32 291.078 21.728C291.654 21.136 291.942 20.328 291.942 19.304Z" fill="#363C57"/>
<defs>
<clipPath id="clip0_1048_116">
<rect width="17" height="23" fill="white" transform="translate(0.440918 6.5)"/>
</clipPath>
</defs>
</svg>
