<svg width="265" height="42" viewBox="0 0 265 42" fill="none" xmlns="http://www.w3.org/2000/svg">
<path d="M24 26.5C22.26 26.5 20.7964 25.1167 20.5398 23.5L24 23.5L27.4602 23.5C27.2036 25.1167 25.74 26.5 24 26.5Z" fill="#415EE6" stroke="#415EE6"/>
<path d="M22 20.8029C22 21.2464 21.5523 20.8029 21 20.8029C20.4477 20.8029 20 21.2464 20 20.8029C20 20.3595 20.4477 20 21 20C21.5523 20 22 20.3595 22 20.8029Z" fill="#415EE6"/>
<path d="M28 20.8029C28 21.2464 27.5523 20.8029 27 20.8029C26.4477 20.8029 26 21.2464 26 20.8029C26 20.3595 26.4477 20 27 20C27.5523 20 28 20.3595 28 20.8029Z" fill="#415EE6"/>
<rect x="17" y="16" width="14" height="14" rx="7" stroke="#415EE6" stroke-width="2.5"/>
<rect x="17" y="17" width="0.001" height="16" fill="#415EE6" stroke="#415EE6" stroke-width="2.5"/>
<path d="M7.7 31.252C6.48667 31.252 5.39467 31.0373 4.424 30.608C3.472 30.16 2.716 29.5627 2.156 28.816C1.596 28.0507 1.29733 27.2013 1.26 26.268H4.564C4.62 26.9213 4.928 27.472 5.488 27.92C6.06667 28.3493 6.78533 28.564 7.644 28.564C8.54 28.564 9.23067 28.396 9.716 28.06C10.22 27.7053 10.472 27.2573 10.472 26.716C10.472 26.1373 10.192 25.708 9.632 25.428C9.09067 25.148 8.22267 24.84 7.028 24.504C5.87067 24.1867 4.928 23.8787 4.2 23.58C3.472 23.2813 2.83733 22.824 2.296 22.208C1.77333 21.592 1.512 20.78 1.512 19.772C1.512 18.9507 1.75467 18.204 2.24 17.532C2.72533 16.8413 3.416 16.3 4.312 15.908C5.22667 15.516 6.272 15.32 7.448 15.32C9.20267 15.32 10.612 15.768 11.676 16.664C12.7587 17.5413 13.3373 18.7453 13.412 20.276H10.22C10.164 19.5853 9.884 19.0347 9.38 18.624C8.876 18.2133 8.19467 18.008 7.336 18.008C6.496 18.008 5.852 18.1667 5.404 18.484C4.956 18.8013 4.732 19.2213 4.732 19.744C4.732 20.1547 4.88133 20.5 5.18 20.78C5.47867 21.06 5.84267 21.284 6.272 21.452C6.70133 21.6013 7.336 21.7973 8.176 22.04C9.296 22.3387 10.2107 22.6467 10.92 22.964C11.648 23.2627 12.2733 23.7107 12.796 24.308C13.3187 24.9053 13.5893 25.6987 13.608 26.688C13.608 27.5653 13.3653 28.3493 12.88 29.04C12.3947 29.7307 11.704 30.272 10.808 30.664C9.93067 31.056 8.89467 31.252 7.7 31.252Z" fill="#415EE6"/>
<path d="M47.936 29.192C46.768 29.192 45.728 28.992 44.816 28.592C43.904 28.192 43.184 27.648 42.656 26.96C42.128 26.256 41.832 25.472 41.768 24.608H45.824C45.872 25.072 46.088 25.448 46.472 25.736C46.856 26.024 47.328 26.168 47.888 26.168C48.4 26.168 48.792 26.072 49.064 25.88C49.352 25.672 49.496 25.408 49.496 25.088C49.496 24.704 49.296 24.424 48.896 24.248C48.496 24.056 47.848 23.848 46.952 23.624C45.992 23.4 45.192 23.168 44.552 22.928C43.912 22.672 43.36 22.28 42.896 21.752C42.432 21.208 42.2 20.48 42.2 19.568C42.2 18.8 42.408 18.104 42.824 17.48C43.256 16.84 43.88 16.336 44.696 15.968C45.528 15.6 46.512 15.416 47.648 15.416C49.328 15.416 50.648 15.832 51.608 16.664C52.584 17.496 53.144 18.6 53.288 19.976H49.496C49.432 19.512 49.224 19.144 48.872 18.872C48.536 18.6 48.088 18.464 47.528 18.464C47.048 18.464 46.68 18.56 46.424 18.752C46.168 18.928 46.04 19.176 46.04 19.496C46.04 19.88 46.24 20.168 46.64 20.36C47.056 20.552 47.696 20.744 48.56 20.936C49.552 21.192 50.36 21.448 50.984 21.704C51.608 21.944 52.152 22.344 52.616 22.904C53.096 23.448 53.344 24.184 53.36 25.112C53.36 25.896 53.136 26.6 52.688 27.224C52.256 27.832 51.624 28.312 50.792 28.664C49.976 29.016 49.024 29.192 47.936 29.192ZM61.9668 29.192C60.6548 29.192 59.4708 28.912 58.4148 28.352C57.3748 27.792 56.5508 26.992 55.9428 25.952C55.3508 24.912 55.0548 23.696 55.0548 22.304C55.0548 20.928 55.3588 19.72 55.9668 18.68C56.5748 17.624 57.4068 16.816 58.4628 16.256C59.5188 15.696 60.7028 15.416 62.0148 15.416C63.3268 15.416 64.5108 15.696 65.5668 16.256C66.6228 16.816 67.4548 17.624 68.0628 18.68C68.6708 19.72 68.9748 20.928 68.9748 22.304C68.9748 23.68 68.6628 24.896 68.0388 25.952C67.4308 26.992 66.5908 27.792 65.5188 28.352C64.4628 28.912 63.2788 29.192 61.9668 29.192ZM61.9668 25.64C62.7508 25.64 63.4148 25.352 63.9588 24.776C64.5188 24.2 64.7988 23.376 64.7988 22.304C64.7988 21.232 64.5268 20.408 63.9828 19.832C63.4548 19.256 62.7988 18.968 62.0148 18.968C61.2148 18.968 60.5508 19.256 60.0228 19.832C59.4948 20.392 59.2308 21.216 59.2308 22.304C59.2308 23.376 59.4868 24.2 59.9988 24.776C60.5268 25.352 61.1828 25.64 61.9668 25.64ZM70.3361 22.304C70.3361 20.912 70.6161 19.696 71.1761 18.656C71.7521 17.616 72.5441 16.816 73.5521 16.256C74.5761 15.696 75.7441 15.416 77.0561 15.416C78.7361 15.416 80.1361 15.856 81.2561 16.736C82.3921 17.616 83.1361 18.856 83.4881 20.456H79.1201C78.7521 19.432 78.0401 18.92 76.9841 18.92C76.2321 18.92 75.6321 19.216 75.1841 19.808C74.7361 20.384 74.5121 21.216 74.5121 22.304C74.5121 23.392 74.7361 24.232 75.1841 24.824C75.6321 25.4 76.2321 25.688 76.9841 25.688C78.0401 25.688 78.7521 25.176 79.1201 24.152H83.4881C83.1361 25.72 82.3921 26.952 81.2561 27.848C80.1201 28.744 78.7201 29.192 77.0561 29.192C75.7441 29.192 74.5761 28.912 73.5521 28.352C72.5441 27.792 71.7521 26.992 71.1761 25.952C70.6161 24.912 70.3361 23.696 70.3361 22.304ZM87.7473 14.216C87.0273 14.216 86.4353 14.008 85.9713 13.592C85.5233 13.16 85.2993 12.632 85.2993 12.008C85.2993 11.368 85.5233 10.84 85.9713 10.424C86.4353 9.992 87.0273 9.776 87.7473 9.776C88.4513 9.776 89.0273 9.992 89.4753 10.424C89.9393 10.84 90.1713 11.368 90.1713 12.008C90.1713 12.632 89.9393 13.16 89.4753 13.592C89.0273 14.008 88.4513 14.216 87.7473 14.216ZM89.7873 15.608V29H85.6833V15.608H89.7873ZM91.9454 22.28C91.9454 20.904 92.2014 19.696 92.7134 18.656C93.2414 17.616 93.9534 16.816 94.8494 16.256C95.7454 15.696 96.7454 15.416 97.8494 15.416C98.7934 15.416 99.6174 15.608 100.321 15.992C101.041 16.376 101.593 16.88 101.977 17.504V15.608H106.081V29H101.977V27.104C101.577 27.728 101.017 28.232 100.297 28.616C99.5934 29 98.7694 29.192 97.8254 29.192C96.7374 29.192 95.7454 28.912 94.8494 28.352C93.9534 27.776 93.2414 26.968 92.7134 25.928C92.2014 24.872 91.9454 23.656 91.9454 22.28ZM101.977 22.304C101.977 21.28 101.689 20.472 101.113 19.88C100.553 19.288 99.8654 18.992 99.0494 18.992C98.2334 18.992 97.5374 19.288 96.9614 19.88C96.4014 20.456 96.1214 21.256 96.1214 22.28C96.1214 23.304 96.4014 24.12 96.9614 24.728C97.5374 25.32 98.2334 25.616 99.0494 25.616C99.8654 25.616 100.553 25.32 101.113 24.728C101.689 24.136 101.977 23.328 101.977 22.304ZM113.155 11.24V29H109.051V11.24H113.155ZM125.319 17.504C125.719 16.88 126.271 16.376 126.975 15.992C127.679 15.608 128.503 15.416 129.447 15.416C130.551 15.416 131.551 15.696 132.447 16.256C133.343 16.816 134.047 17.616 134.559 18.656C135.087 19.696 135.351 20.904 135.351 22.28C135.351 23.656 135.087 24.872 134.559 25.928C134.047 26.968 133.343 27.776 132.447 28.352C131.551 28.912 130.551 29.192 129.447 29.192C128.519 29.192 127.695 29 126.975 28.616C126.271 28.232 125.719 27.736 125.319 27.128V35.384H121.215V15.608H125.319V17.504ZM131.175 22.28C131.175 21.256 130.887 20.456 130.311 19.88C129.751 19.288 129.055 18.992 128.223 18.992C127.407 18.992 126.711 19.288 126.135 19.88C125.575 20.472 125.295 21.28 125.295 22.304C125.295 23.328 125.575 24.136 126.135 24.728C126.711 25.32 127.407 25.616 128.223 25.616C129.039 25.616 129.735 25.32 130.311 24.728C130.887 24.12 131.175 23.304 131.175 22.28ZM141.608 17.84C142.088 17.104 142.688 16.528 143.408 16.112C144.128 15.68 144.928 15.464 145.808 15.464V19.808H144.68C143.656 19.808 142.888 20.032 142.376 20.48C141.864 20.912 141.608 21.68 141.608 22.784V29H137.504V15.608H141.608V17.84ZM160.393 22.088C160.393 22.472 160.369 22.872 160.321 23.288H151.033C151.097 24.12 151.361 24.76 151.825 25.208C152.305 25.64 152.889 25.856 153.577 25.856C154.601 25.856 155.313 25.424 155.713 24.56H160.081C159.857 25.44 159.449 26.232 158.857 26.936C158.281 27.64 157.553 28.192 156.673 28.592C155.793 28.992 154.809 29.192 153.721 29.192C152.409 29.192 151.241 28.912 150.217 28.352C149.193 27.792 148.393 26.992 147.817 25.952C147.241 24.912 146.953 23.696 146.953 22.304C146.953 20.912 147.233 19.696 147.793 18.656C148.369 17.616 149.169 16.816 150.193 16.256C151.217 15.696 152.393 15.416 153.721 15.416C155.017 15.416 156.169 15.688 157.177 16.232C158.185 16.776 158.969 17.552 159.529 18.56C160.105 19.568 160.393 20.744 160.393 22.088ZM156.193 21.008C156.193 20.304 155.953 19.744 155.473 19.328C154.993 18.912 154.393 18.704 153.673 18.704C152.985 18.704 152.401 18.904 151.921 19.304C151.457 19.704 151.169 20.272 151.057 21.008H156.193ZM168.006 29.192C166.838 29.192 165.798 28.992 164.886 28.592C163.974 28.192 163.254 27.648 162.726 26.96C162.198 26.256 161.902 25.472 161.838 24.608H165.894C165.942 25.072 166.158 25.448 166.542 25.736C166.926 26.024 167.398 26.168 167.958 26.168C168.47 26.168 168.862 26.072 169.134 25.88C169.422 25.672 169.566 25.408 169.566 25.088C169.566 24.704 169.366 24.424 168.966 24.248C168.566 24.056 167.918 23.848 167.022 23.624C166.062 23.4 165.262 23.168 164.622 22.928C163.982 22.672 163.43 22.28 162.966 21.752C162.502 21.208 162.27 20.48 162.27 19.568C162.27 18.8 162.478 18.104 162.894 17.48C163.326 16.84 163.95 16.336 164.766 15.968C165.598 15.6 166.582 15.416 167.718 15.416C169.398 15.416 170.718 15.832 171.678 16.664C172.654 17.496 173.214 18.6 173.358 19.976H169.566C169.502 19.512 169.294 19.144 168.942 18.872C168.606 18.6 168.158 18.464 167.598 18.464C167.118 18.464 166.75 18.56 166.494 18.752C166.238 18.928 166.11 19.176 166.11 19.496C166.11 19.88 166.31 20.168 166.71 20.36C167.126 20.552 167.766 20.744 168.63 20.936C169.622 21.192 170.43 21.448 171.054 21.704C171.678 21.944 172.222 22.344 172.686 22.904C173.166 23.448 173.414 24.184 173.43 25.112C173.43 25.896 173.206 26.6 172.758 27.224C172.326 27.832 171.694 28.312 170.862 28.664C170.046 29.016 169.094 29.192 168.006 29.192ZM175.125 22.304C175.125 20.912 175.405 19.696 175.965 18.656C176.541 17.616 177.333 16.816 178.341 16.256C179.365 15.696 180.533 15.416 181.845 15.416C183.525 15.416 184.925 15.856 186.045 16.736C187.181 17.616 187.925 18.856 188.277 20.456H183.909C183.541 19.432 182.829 18.92 181.773 18.92C181.021 18.92 180.421 19.216 179.973 19.808C179.525 20.384 179.301 21.216 179.301 22.304C179.301 23.392 179.525 24.232 179.973 24.824C180.421 25.4 181.021 25.688 181.773 25.688C182.829 25.688 183.541 25.176 183.909 24.152H188.277C187.925 25.72 187.181 26.952 186.045 27.848C184.909 28.744 183.509 29.192 181.845 29.192C180.533 29.192 179.365 28.912 178.341 28.352C177.333 27.792 176.541 26.992 175.965 25.952C175.405 24.912 175.125 23.696 175.125 22.304ZM194.576 17.84C195.056 17.104 195.656 16.528 196.376 16.112C197.096 15.68 197.896 15.464 198.776 15.464V19.808H197.648C196.624 19.808 195.856 20.032 195.344 20.48C194.832 20.912 194.576 21.68 194.576 22.784V29H190.472V15.608H194.576V17.84ZM202.802 14.216C202.082 14.216 201.49 14.008 201.026 13.592C200.578 13.16 200.354 12.632 200.354 12.008C200.354 11.368 200.578 10.84 201.026 10.424C201.49 9.992 202.082 9.776 202.802 9.776C203.506 9.776 204.082 9.992 204.53 10.424C204.994 10.84 205.226 11.368 205.226 12.008C205.226 12.632 204.994 13.16 204.53 13.592C204.082 14.008 203.506 14.216 202.802 14.216ZM204.842 15.608V29H200.738V15.608H204.842ZM211.92 17.504C212.304 16.88 212.856 16.376 213.576 15.992C214.296 15.608 215.12 15.416 216.048 15.416C217.152 15.416 218.152 15.696 219.048 16.256C219.944 16.816 220.648 17.616 221.16 18.656C221.688 19.696 221.952 20.904 221.952 22.28C221.952 23.656 221.688 24.872 221.16 25.928C220.648 26.968 219.944 27.776 219.048 28.352C218.152 28.912 217.152 29.192 216.048 29.192C215.104 29.192 214.28 29.008 213.576 28.64C212.872 28.256 212.32 27.752 211.92 27.128V29H207.816V11.24H211.92V17.504ZM217.776 22.28C217.776 21.256 217.488 20.456 216.912 19.88C216.352 19.288 215.656 18.992 214.824 18.992C214.008 18.992 213.312 19.288 212.736 19.88C212.176 20.472 211.896 21.28 211.896 22.304C211.896 23.328 212.176 24.136 212.736 24.728C213.312 25.32 214.008 25.616 214.824 25.616C215.64 25.616 216.336 25.32 216.912 24.728C217.488 24.12 217.776 23.304 217.776 22.28ZM226.169 14.216C225.449 14.216 224.857 14.008 224.393 13.592C223.945 13.16 223.721 12.632 223.721 12.008C223.721 11.368 223.945 10.84 224.393 10.424C224.857 9.992 225.449 9.776 226.169 9.776C226.873 9.776 227.449 9.992 227.897 10.424C228.361 10.84 228.593 11.368 228.593 12.008C228.593 12.632 228.361 13.16 227.897 13.592C227.449 14.008 226.873 14.216 226.169 14.216ZM228.209 15.608V29H224.105V15.608H228.209ZM239.343 15.464C240.911 15.464 242.159 15.976 243.087 17C244.031 18.008 244.503 19.4 244.503 21.176V29H240.423V21.728C240.423 20.832 240.191 20.136 239.727 19.64C239.263 19.144 238.639 18.896 237.855 18.896C237.071 18.896 236.447 19.144 235.983 19.64C235.519 20.136 235.287 20.832 235.287 21.728V29H231.183V15.608H235.287V17.384C235.703 16.792 236.263 16.328 236.967 15.992C237.671 15.64 238.463 15.464 239.343 15.464ZM252.443 15.416C253.387 15.416 254.211 15.608 254.915 15.992C255.635 16.376 256.187 16.88 256.571 17.504V15.608H260.675V28.976C260.675 30.208 260.427 31.32 259.931 32.312C259.451 33.32 258.707 34.12 257.699 34.712C256.707 35.304 255.467 35.6 253.979 35.6C251.995 35.6 250.387 35.128 249.155 34.184C247.923 33.256 247.219 31.992 247.043 30.392H251.099C251.227 30.904 251.531 31.304 252.011 31.592C252.491 31.896 253.083 32.048 253.787 32.048C254.635 32.048 255.307 31.8 255.803 31.304C256.315 30.824 256.571 30.048 256.571 28.976V27.08C256.171 27.704 255.619 28.216 254.915 28.616C254.211 29 253.387 29.192 252.443 29.192C251.339 29.192 250.339 28.912 249.443 28.352C248.547 27.776 247.835 26.968 247.307 25.928C246.795 24.872 246.539 23.656 246.539 22.28C246.539 20.904 246.795 19.696 247.307 18.656C247.835 17.616 248.547 16.816 249.443 16.256C250.339 15.696 251.339 15.416 252.443 15.416ZM256.571 22.304C256.571 21.28 256.283 20.472 255.707 19.88C255.147 19.288 254.459 18.992 253.643 18.992C252.827 18.992 252.131 19.288 251.555 19.88C250.995 20.456 250.715 21.256 250.715 22.28C250.715 23.304 250.995 24.12 251.555 24.728C252.131 25.32 252.827 25.616 253.643 25.616C254.459 25.616 255.147 25.32 255.707 24.728C256.283 24.136 256.571 23.328 256.571 22.304Z" fill="#1E2726"/>
</svg>
